<svg viewBox="0 0 44 44" xmlns="http://www.w3.org/2000/svg"><g fill="#fff"><path d="m27.75 30.27h-.02c-.06-.26-.2-.49-.4-.66-.25-.21-.56-.32-.88-.29-.33.02-.62.17-.84.42-.21.25-.32.57-.29.89v.18c.13 1.49.24 3.03-.03 5.75-.16 1.59-.65 2.72-1.45 3.37-.91.74-2 .64-2 .64-.04 0-.11-.01-.15-.01-.29 0-2.84-.21-3.29-4.63-.1-.94-.31-2.42-.56-4.1-.5-3.4-1.17-8-1.46-12.05l.78.78c.46.46 1.28.46 1.72 0 .48-.48.48-1.26 0-1.74l-2.99-3.02c-.46-.46-1.28-.46-1.72 0l-2.98 3.01c-.48.48-.48 1.26 0 1.74.46.47 1.27.47 1.73 0l1.01-1.02c.28 4.24.98 9.08 1.5 12.64.23 1.6.45 3.12.54 4 .54 5.34 3.93 6.81 5.63 6.84.08 0 .2.02.36.02.72 0 2.11-.15 3.37-1.16 1.35-1.08 2.15-2.78 2.38-5.07.3-2.91.17-4.63.06-6.18l-.03-.37z"/><path d="m30.81 22.89c-.23-.23-.54-.36-.86-.36-.33 0-.63.13-.86.36l-.84.85c.29-1.34.62-2.21.93-3.06l.02-.05c.51-1.37 1.04-2.79 1.39-5.84.54-4.71-.49-9.05-2.76-11.61-1.27-1.44-2.83-2.2-4.5-2.2-4.03 0-8.09 5.15-9.26 11.72-.12.67.32 1.31.99 1.43.32.06.65-.01.91-.2.27-.19.45-.47.5-.79.83-4.68 3.79-9.69 6.86-9.69 1.21 0 2.13.75 2.68 1.38 1.79 2.02 2.61 5.74 2.16 9.7-.31 2.74-.77 3.96-1.25 5.26-.4 1.07-.81 2.17-1.17 4.04l-.9-.91c-.23-.23-.54-.36-.86-.36-.33 0-.63.13-.86.36-.47.48-.47 1.26 0 1.74l2.99 3.01c.23.23.54.36.86.36s.63-.13.86-.36l2.99-3.01c.47-.48.47-1.26 0-1.74z"/></g>
</svg>

<svg viewBox="0 0 44 44" xmlns="http://www.w3.org/2000/svg"><path d="m22 1.63c-11.25 0-20.37 9.12-20.37 20.37s9.12 20.37 20.37 20.37 20.37-9.12 20.37-20.37-9.12-20.37-20.37-20.37zm-8.54 36.02c.2-.65.34-1.29.34-1.99s.47-1.08.98-1.38c.88-.52.98-.66.87-1.78-.08-.79.03-1.5.42-2.17.15-.25.25-.56.3-.86.11-.57-.14-1.14-.64-1.42-.67-.37-1.37-.68-2.05-1.01-.29-.14-.58-.29-.88-.43-.31-.15-.47-.41-.6-.76-.15-.39-.42-.79-.73-1.03-.86-.65-1.71-1.3-2.49-2.08-.57-.58-1.27-.8-2.05-.46-.16.07-.49.02-.58-.12-.66-.93-1.09-1.97-.98-3.2.04-.41.19-.73.51-.95.31-.21.58-.48.9-.67.71-.45 1.15-1.12 1.47-1.94.55-1.41 1.59-2.21 2.88-2.65.29-.1.45-.28.52-.59.05-.27.1-.54.16-.82.06-.29.21-.34.42-.15.04.04.08.08.13.12.28.28.58.53.97.28.42-.27.83-.6.74-1.22-.07-.51-.22-1.02-.37-1.51-.23-.75-.14-1.03.5-1.43.12-.07.25-.14.36-.23.34-.28.31-.7-.06-.92-.13-.07-.26-.14-.42-.22.59-.3 1.2-.56 1.83-.79.25-.03.51-.04.78-.04-.14.46-.27.86-.37 1.27-.07.29-.15.6-.16.9-.02.57.3.83.78.66.2-.07.39-.17.56-.29.27-.19.54-.38.79-.6.75-.64 1.6-.95 2.55-1 1.2-.06 2.2-.59 2.96-1.64.06-.08.12-.15.18-.23 1.86.2 3.63.7 5.27 1.43-.52.28-1.03.56-1.53.83-.7.39-.9 1-.59 1.81.13.33.1.49-.14.78-.48.59-1.05.64-1.69.64-1.5 0-2.53 1.52-2.19 3.15.13.61.45 1.01 1.11 1.23-.7.84-1.33 1.61-1.98 2.36-.64.75-1.08 1.6-1.14 2.66-.04.59-.09 1.17-.17 1.75-.08.57 0 1.11.21 1.63.58 1.41 1.51 2.46 2.8 3.02.41.18.96.1 1.41 0 .55-.13 1.08-.4 1.61-.62.39-.16.6-.01.86.35.91 1.25 1.01 2.88 1.64 4.26.17.38.06 1.02-.1 1.46-.3.81-.35 1.55-.08 2.37.34 1.06.62 2.15.95 3.21.15.49.44.75.81.76-2.65 1.56-5.74 2.47-9.04 2.47-3.1 0-6.01-.79-8.54-2.18zm19.85-1.87c.56-.63 1.04-1.33 1.46-2.09.54-.99 1.04-2.01 1.55-3.02.29-.57.4-1.19.3-1.84-.1-.68 0-1.3.32-1.87.4-.71.81-1.41 1.27-2.06.52-.73.61-1.46.22-2.28-.06-.14-.12-.28-.17-.42-.1-.3-.07-.52.26-.63.48-.17.79-.56.94-1.1.08-.27.14-.54.21-.8.1.76.16 1.54.16 2.33 0 5.55-2.54 10.51-6.52 13.78z" fill="#fff" fill-rule="evenodd"/></svg>
<svg viewBox="0 0 44 44" xmlns="http://www.w3.org/2000/svg"><path d="m32.53 5.68c.29 0 .56.11.76.32s.32.48.32.76v3.06h8.61c.27 0 .53.1.73.28s.32.43.35.7c.01.13.28 3.26-2.01 5.77-1.81 1.98-4.62 2.99-8.38 2.99h-3.63c-.15 0-.29-.02-.43-.07s-.26-.13-.36-.23-.19-.22-.24-.36c-.06-.13-.09-.28-.09-.42s.03-.29.09-.42.14-.25.24-.36c.1-.1.23-.18.36-.23.14-.05.28-.08.43-.07h3.63c3.12 0 5.4-.77 6.78-2.28.96-1.05 1.29-2.29 1.41-3.13h-13.96c-2.07.2-5.1.95-7.83 3.43-1.43 1.3-2.58 2.89-3.37 4.66s-1.21 3.68-1.23 5.62v7.43c.01.16 0 .32-.06.47s-.14.29-.26.4c-.11.11-.25.2-.4.25s-.31.07-.47.06l-2.22.02c-3.27 0-4.55.81-5.03 1.29-.15.15-.28.34-.36.53.74-.02 1.76-.02 3.17-.02h9.52c5.2.01 10.41.03 12.66.04-.09-.21-.21-.4-.37-.56-.47-.48-1.75-1.3-5.02-1.3l-2.35-.02s-.08 0-.12-.01c-.03 0-.06 0-.09-.01-.05 0-.09-.03-.13-.04-.02 0-.05-.01-.07-.02-.05-.02-.09-.05-.14-.08l-.04-.02s-.09-.07-.13-.11l-.03-.02s-.07-.08-.11-.13c0-.01-.02-.02-.02-.03-.03-.05-.06-.1-.09-.16v-.02c-.03-.05-.05-.11-.06-.16 0-.02 0-.02-.01-.04-.01-.07-.02-.14-.02-.22v-3.03c-.02-.33-.53-9.75 5.42-10.36.14-.02.29 0 .43.03.14.04.27.1.38.19s.21.2.28.33.11.27.13.41c.01.14 0 .29-.04.43s-.11.27-.2.38-.21.2-.34.27-.27.11-.41.12c-3.83.39-3.49 8.07-3.48 8.14v.81s0 1.21 0 1.21h1.27c3.18 0 5.42.7 6.67 2.07.94 1.04.97 2.11.96 2.42v.62c0 .14-.03.28-.08.41s-.13.25-.23.35-.22.18-.35.23-.27.08-.41.08c-10.45-.04-26.24-.08-27.51-.02-.15.03-.31.02-.46-.02s-.29-.12-.41-.22-.22-.23-.28-.37c-.07-.14-.1-.3-.1-.45v-.62c-.01-.31.02-1.39.96-2.42 1.24-1.37 3.49-2.06 6.67-2.06h1.26v-6.08s0-.06 0-.09c0-.06 0-.12 0-.19v-1.83c0-2.29-.62-4.03-1.83-5.15-1.84-1.71-4.47-1.52-4.5-1.52s-.06 0-.09 0h-4.41c-.29 0-.56-.11-.76-.32-.2-.2-.32-.48-.32-.76v-9.45c0-.29.11-.56.32-.76.2-.2.48-.32.76-.32zm-4.7 9.09c.29-.01.57.09.78.28s.34.46.35.75-.09.57-.28.78-.46.34-.75.35c-2.8.12-4.84 2.02-5.15 2.32l-.04.04s-.04.04-.06.05c-2.66 2.42-3.05 7.51-3.05 10.33v3.33c0 .29-.11.56-.32.76-.2.2-.48.32-.76.32s-.56-.11-.76-.32c-.2-.2-.32-.48-.32-.76v-3.33c0-3.87.65-9.07 3.74-11.9.33-.33 2.92-2.85 6.64-3.01zm3.63-6.93h-28.61v7.29h3.25c.46-.03 3.69-.13 6.09 2.09.69.64 1.24 1.41 1.64 2.29s.24-.53.24-.53c.82-1.78 1.96-3.39 3.36-4.76l.44-.41c.76-.69 1.58-1.3 2.46-1.83h-14.93c-.29 0-.56-.11-.76-.32-.2-.2-.32-.48-.32-.76s.11-.56.32-.76c.2-.2.48-.32.76-.32h26.05v-1.98z" fill="#fff" fill-rule="evenodd"/></svg>
<svg viewBox="0 0 44 44" xmlns="http://www.w3.org/2000/svg">
<g fill="#fff"><path d="m22 1.57c-11.28 0-20.43 9.14-20.43 20.43s9.15 20.43 20.43 20.43 20.43-9.15 20.43-20.43-9.15-20.43-20.43-20.43zm0 38.31c-9.87 0-17.88-8.01-17.88-17.88s8.01-17.88 17.88-17.88 17.88 8 17.88 17.88-8 17.88-17.88 17.88z"/><path d="m15.73 12.11-.02 3.13 2.38.02v19.31h6.4v-25.14h-5.67z"/><path d="m32.73 21.87c-1.02 0-1.84.81-1.84 1.8s.83 1.8 1.84 1.8 1.84-.81 1.84-1.8-.83-1.8-1.84-1.8zm.57 2.36c-.15.15-.36.23-.57.23-.45 0-.81-.36-.81-.79 0-.21.09-.42.24-.56.15-.15.36-.23.57-.23.21 0 .42.08.57.23s.24.35.24.57c0 .21-.09.42-.24.57z"/><path d="m32.56 17.81-5.72 7.66h1.33l5.73-7.66z"/><path d="m29.77 19.64c0-.99-.83-1.8-1.84-1.8s-1.84.81-1.84 1.8.83 1.8 1.84 1.8 1.84-.81 1.84-1.8zm-2.65 0c0-.21.09-.42.24-.56.15-.15.36-.23.57-.23s.42.08.57.23.24.35.24.56-.09.42-.24.57-.36.23-.57.23c-.45 0-.81-.36-.81-.79z"/></g>
</svg>
<svg viewBox="0 0 44 44" xmlns="http://www.w3.org/2000/svg"><path d="m22 1.63c-11.25 0-20.37 9.12-20.37 20.37s9.12 20.37 20.37 20.37 20.37-9.12 20.37-20.37-9.12-20.37-20.37-20.37zm-8.54 36.02c.2-.65.34-1.29.34-1.99s.47-1.08.98-1.38c.88-.52.98-.66.87-1.78-.08-.79.03-1.5.42-2.17.15-.25.25-.56.3-.86.11-.57-.14-1.14-.64-1.42-.67-.37-1.37-.68-2.05-1.01-.29-.14-.58-.29-.88-.43-.31-.15-.47-.41-.6-.76-.15-.39-.42-.79-.73-1.03-.86-.65-1.71-1.3-2.49-2.08-.57-.58-1.27-.8-2.05-.46-.16.07-.49.02-.58-.12-.66-.93-1.09-1.97-.98-3.2.04-.41.19-.73.51-.95.31-.21.58-.48.9-.67.71-.45 1.15-1.12 1.47-1.94.55-1.41 1.59-2.21 2.88-2.65.29-.1.45-.28.52-.59.05-.27.1-.54.16-.82.06-.29.21-.34.42-.15.04.04.08.08.13.12.28.28.58.53.97.28.42-.27.83-.6.74-1.22-.07-.51-.22-1.02-.37-1.51-.23-.75-.14-1.03.5-1.43.12-.07.25-.14.36-.23.34-.28.31-.7-.06-.92-.13-.07-.26-.14-.42-.22.59-.3 1.2-.56 1.83-.79.25-.03.51-.04.78-.04-.14.46-.27.86-.37 1.27-.07.29-.15.6-.16.9-.02.57.3.83.78.66.2-.07.39-.17.56-.29.27-.19.54-.38.79-.6.75-.64 1.6-.95 2.55-1 1.2-.06 2.2-.59 2.96-1.64.06-.08.12-.15.18-.23 1.86.2 3.63.7 5.27 1.43-.52.28-1.03.56-1.53.83-.7.39-.9 1-.59 1.81.13.33.1.49-.14.78-.48.59-1.05.64-1.69.64-1.5 0-2.53 1.52-2.19 3.15.13.61.45 1.01 1.11 1.23-.7.84-1.33 1.61-1.98 2.36-.64.75-1.08 1.6-1.14 2.66-.04.59-.09 1.17-.17 1.75-.08.57 0 1.11.21 1.63.58 1.41 1.51 2.46 2.8 3.02.41.18.96.1 1.41 0 .55-.13 1.08-.4 1.61-.62.39-.16.6-.01.86.35.91 1.25 1.01 2.88 1.64 4.26.17.38.06 1.02-.1 1.46-.3.81-.35 1.55-.08 2.37.34 1.06.62 2.15.95 3.21.15.49.44.75.81.76-2.65 1.56-5.74 2.47-9.04 2.47-3.1 0-6.01-.79-8.54-2.18zm19.85-1.87c.56-.63 1.04-1.33 1.46-2.09.54-.99 1.04-2.01 1.55-3.02.29-.57.4-1.19.3-1.84-.1-.68 0-1.3.32-1.87.4-.71.81-1.41 1.27-2.06.52-.73.61-1.46.22-2.28-.06-.14-.12-.28-.17-.42-.1-.3-.07-.52.26-.63.48-.17.79-.56.94-1.1.08-.27.14-.54.21-.8.1.76.16 1.54.16 2.33 0 5.55-2.54 10.51-6.52 13.78z" fill="#fff" fill-rule="evenodd"/></svg>
<svg viewBox="0 0 44 44" xmlns="http://www.w3.org/2000/svg"><g fill="#fff"><path d="m29.49 39.23c.14-.08.28-.16.42-.24-.14.08-.28.17-.42.24z"/><path d="m30.62 38.54s-.1.07-.15.1c-.15.1-.3.19-.45.28-.03.02-.07.04-.11.06-.14.08-.28.16-.42.24 0 0-.02.01-.03.02-3.55 1.97-7.63 2.54-11.6 1.6-.99-.23-1.94-.55-2.85-.95-.18-.08-.37-.16-.55-.25-2.87-1.39-5.3-3.59-7.03-6.42-2.72-4.47-3.2-9.74-1.76-14.41l-1.49-2.41c-2.35 5.68-2.05 12.42 1.37 18.04 2.69 4.41 6.89 7.48 11.82 8.64 1.41.33 2.83.5 4.25.5 3.52 0 6.98-1.02 10.04-3 7.72-5 10.74-14.85 7.67-23.33l-1.55 2.5c1.75 7.01-.94 14.69-7.14 18.8z"/><path d="m12.63 9.51s.03-.01.04-.02c2.33-1.52 5.02-2.43 7.79-2.63.17-.01.35-.02.52-.03h.17.35.19.34.19c.16 0 .32.01.48.02.07 0 .14 0 .22.02.09 0 .19.01.28.02.09 0 .18.02.27.03.07 0 .15.02.22.03.1.01.2.02.29.04.06 0 .11.02.17.03.38.06.76.13 1.14.22.02 0 .04 0 .07.01.13.03.26.06.38.1.02 0 .04.01.06.02.56.15 1.12.32 1.66.53v.02s-3.81 1.35-3.81 1.35c-.56.2-.86.83-.67 1.41s.81.88 1.37.68l6.32-2.25s0 0 .01 0c.04-.01.08-.04.12-.06.02-.01.05-.02.07-.03.03-.02.07-.05.1-.07.02-.02.05-.03.07-.05s.04-.05.06-.07c.03-.03.05-.06.08-.09.01-.02.03-.04.04-.07.02-.04.05-.08.07-.12.01-.02.01-.05.02-.07.01-.04.03-.08.04-.12 0-.04.01-.07.02-.11s.01-.07.01-.11 0-.08 0-.12c0-.03 0-.07 0-.1 0-.05-.02-.09-.03-.13 0-.02 0-.05-.02-.07l-2.19-6.51c-.1-.3-.31-.53-.58-.65-.24-.11-.52-.13-.79-.04-.56.2-.86.83-.66 1.41l1.33 3.97s-.04-.01-.06-.02c-.16-.06-.32-.12-.49-.18-.06-.02-.13-.05-.2-.07-.12-.04-.24-.08-.36-.12-.07-.02-.14-.05-.21-.07-.12-.04-.24-.07-.36-.11-.07-.02-.13-.04-.2-.06-.15-.04-.29-.08-.44-.11-.04 0-.08-.02-.12-.03-.19-.05-.37-.09-.56-.13-.06-.01-.12-.02-.17-.03-.13-.03-.27-.05-.4-.08-.07-.01-.14-.02-.21-.04-.13-.02-.25-.04-.38-.06-.07-.01-.14-.02-.21-.03-.14-.02-.28-.03-.42-.05-.06 0-.11-.01-.17-.02-.19-.02-.39-.04-.58-.05-.04 0-.08 0-.12 0-.15-.01-.31-.02-.46-.02-.07 0-.13 0-.2 0-.13 0-.26 0-.39 0h-.21c-.13 0-.27 0-.41 0-.06 0-.12 0-.19 0-.2 0-.39.02-.59.03-3.12.23-6.18 1.21-8.81 2.92-.58.38-1.13.79-1.66 1.21l1.46 1.72c.42-.34.86-.66 1.33-.97z"/><path d="m15 39.9s0 0 0 0z"/><path d="m30.62 38.54s-.1.07-.15.1c.05-.03.1-.07.15-.1z"/><path d="m29.45 39.26s.02-.01.04-.02c-.01 0-.02.01-.04.02z"/><path d="m37.29 18.19 1.45-2.34 2.78-4.48c.32-.52.19-1.2-.3-1.55l-3.2-2.27c-.46-.33-1.09-.25-1.45.19l-8.83 10.41-.08-.73c-.03-.27-.15-.53-.35-.71-.08-.07-1.89-1.75-5.25-1.75h-.15c-3.38 0-5.19 1.67-5.27 1.75-.2.19-.32.44-.35.71l-.08.73-5.84-6.89-1.45-1.72-1.53-1.81c-.37-.43-.99-.52-1.45-.19l-3.15 2.24c-.49.35-.62 1.03-.3 1.54l2.3 3.73 1.41 2.28 7.29 11.81-.09 8.51c.18.1.36.19.55.28h.02c.19.1.38.19.56.27h.02c.2.1.4.18.6.26l.45.18.11-9.79c0-.22-.06-.44-.17-.63l-10.64-17.18 1.47-1.04 9.83 11.59c.14.16.62.64.74.76 1.14 1.02 2.7 1.65 4.38 1.8v9.96c0 .42.33.76.73.76s.73-.34.73-.76v-9.96c1.68-.14 3.24-.78 4.38-1.8.15-.13.48-.65.58-.76l9.83-11.59 1.51 1.07-10.66 17.15c-.12.19-.18.41-.17.63l.14 9.53.52-.24c.37-.17.74-.36 1.1-.56l.03-.02c.15-.08.3-.17.46-.27l.08-.05-.12-8.1 6.81-10.97zm-15.96 4.44c-1.26-.13-2.42-.59-3.29-1.31.05-.11.24-1.72.24-1.72.91.48 1.96.79 3.05.88zm.73-3.64c-1.24 0-2.49-.34-3.45-.94.58-.34 1.68-.82 3.32-.82h.06c1.75 0 2.89.53 3.45.87-.95.57-2.13.89-3.37.89zm.74 3.64v-2.15c1.03-.09 2.02-.37 2.89-.8 0 0 .2 1.6.28 1.74-.85.67-1.97 1.09-3.17 1.22z"/></g></svg>