<svg aria-hidden="true" style="position: absolute; width: 0; height: 0; overflow: hidden;" version="1.1" xmlns="http://www.w3.org/2000/svg" xmlns:xlink="http://www.w3.org/1999/xlink">
<defs>
<symbol id="icon-cheveron-down" viewBox="0 0 20 20">
<path d="M9.293 12.95l0.707 0.707 5.657-5.657-1.414-1.414-4.243 4.242-4.243-4.242-1.414 1.414z"></path>
</symbol>
<symbol id="icon-cheveron-left" viewBox="0 0 20 20">
<path d="M7.050 9.293l-0.707 0.707 5.657 5.657 1.414-1.414-4.242-4.243 4.242-4.243-1.414-1.414z"></path>
</symbol>
<symbol id="icon-cheveron-right" viewBox="0 0 20 20">
<path d="M12.95 10.707l0.707-0.707-5.657-5.657-1.414 1.414 4.242 4.243-4.242 4.243 1.414 1.414 4.95-4.95z"></path>
</symbol>
<symbol id="icon-heart" viewBox="0 0 20 20">
<path d="M10 3.22l-0.61-0.6c-0.983-0.931-2.314-1.504-3.779-1.504-3.038 0-5.5 2.462-5.5 5.5 0 1.462 0.571 2.791 1.501 3.776l-0.002-0.003 8.39 8.39 8.39-8.4c0.928-0.983 1.499-2.312 1.499-3.774 0-3.038-2.462-5.5-5.5-5.5-1.465 0-2.796 0.573-3.782 1.506l0.003-0.002-0.61 0.61z"></path>
</symbol>
<symbol id="icon-shopping-cart" viewBox="0 0 20 20">
<path d="M4 2h16l-3 9h-13c-0.552 0-1 0.448-1 1s0.448 1 1 1v0h13v2h-13c-1.657 0-3-1.343-3-3s1.343-3 3-3v0h0.33l-1.33-4-1-3h-2v-2h3c0.552 0 1 0.448 1 1v0 1zM5 20c-1.105 0-2-0.895-2-2s0.895-2 2-2v0c1.105 0 2 0.895 2 2s-0.895 2-2 2v0zM15 20c-1.105 0-2-0.895-2-2s0.895-2 2-2v0c1.105 0 2 0.895 2 2s-0.895 2-2 2v0z"></path>
</symbol>
<symbol id="icon-user-solid-circle" viewBox="0 0 20 20">
<path d="M10 20c-5.523 0-10-4.477-10-10s4.477-10 10-10v0c5.523 0 10 4.477 10 10s-4.477 10-10 10v0zM7 6v2c0 1.657 1.343 3 3 3s3-1.343 3-3v0-2c0-1.657-1.343-3-3-3s-3 1.343-3 3v0zM3.35 14.44c1.456 2.155 3.89 3.553 6.65 3.553s5.194-1.398 6.632-3.525l0.018-0.028c-1.951-0.918-4.238-1.453-6.65-1.453s-4.699 0.536-6.748 1.495l0.098-0.041z"></path>
</symbol>
<symbol id="icon-view-list" viewBox="0 0 20 20">
<path d="M0 3h20v2h-20v-2zM0 7h20v2h-20v-2zM0 11h20v2h-20v-2zM0 15h20v2h-20v-2z"></path>
</symbol>
<symbol id="icon-chevron-down" viewBox="0 0 20 20">
<path d="M4.516 7.548c0.436-0.446 1.043-0.481 1.576 0l3.908 3.747 3.908-3.747c0.533-0.481 1.141-0.446 1.574 0 0.436 0.445 0.408 1.197 0 1.615-0.406 0.418-4.695 4.502-4.695 4.502-0.217 0.223-0.502 0.335-0.787 0.335s-0.57-0.112-0.789-0.335c0 0-4.287-4.084-4.695-4.502s-0.436-1.17 0-1.615z"></path>
</symbol>
<symbol id="icon-chevron-small-down" viewBox="0 0 20 20">
<path d="M13.418 7.859c0.271-0.268 0.709-0.268 0.978 0s0.272 0.701 0 0.969l-3.908 3.83c-0.27 0.268-0.707 0.268-0.979 0l-3.908-3.83c-0.27-0.267-0.27-0.701 0-0.969s0.709-0.268 0.978 0l3.421 3.141 3.418-3.141z"></path>
</symbol>
<symbol id="icon-chevron-small-left" viewBox="0 0 20 20">
<path d="M12.141 13.418c0.268 0.271 0.268 0.709 0 0.978s-0.701 0.272-0.969 0l-3.83-3.908c-0.268-0.27-0.268-0.707 0-0.979l3.83-3.908c0.267-0.27 0.701-0.27 0.969 0s0.268 0.709 0 0.978l-3.141 3.421 3.141 3.418z"></path>
</symbol>
<symbol id="icon-chevron-small-right" viewBox="0 0 20 20">
<path d="M11 10l-3.141-3.42c-0.268-0.27-0.268-0.707 0-0.978 0.268-0.27 0.701-0.27 0.969 0l3.83 3.908c0.268 0.271 0.268 0.709 0 0.979l-3.83 3.908c-0.267 0.272-0.701 0.27-0.969 0s-0.268-0.707 0-0.978l3.141-3.419z"></path>
</symbol>
<symbol id="icon-chevron-thin-left" viewBox="0 0 20 20">
<path d="M13.891 17.418c0.268 0.272 0.268 0.709 0 0.979s-0.701 0.271-0.969 0l-7.83-7.908c-0.268-0.27-0.268-0.707 0-0.979l7.83-7.908c0.268-0.27 0.701-0.27 0.969 0s0.268 0.709 0 0.979l-7.141 7.419 7.141 7.418z"></path>
</symbol>
<symbol id="icon-chevron-thin-right" viewBox="0 0 20 20">
<path d="M13.25 10l-7.141-7.42c-0.268-0.27-0.268-0.707 0-0.979 0.268-0.27 0.701-0.27 0.969 0l7.83 7.908c0.268 0.271 0.268 0.709 0 0.979l-7.83 7.908c-0.268 0.271-0.701 0.27-0.969 0s-0.268-0.707 0-0.979l7.141-7.417z"></path>
</symbol>
<symbol id="icon-controller-paus" viewBox="0 0 20 20">
<path d="M15 3h-2c-0.553 0-1 0.048-1 0.6v12.8c0 0.552 0.447 0.6 1 0.6h2c0.553 0 1-0.048 1-0.6v-12.8c0-0.552-0.447-0.6-1-0.6zM7 3h-2c-0.553 0-1 0.048-1 0.6v12.8c0 0.552 0.447 0.6 1 0.6h2c0.553 0 1-0.048 1-0.6v-12.8c0-0.552-0.447-0.6-1-0.6z"></path>
</symbol>
<symbol id="icon-controller-play" viewBox="0 0 20 20">
<path d="M15 10.001c0 0.299-0.305 0.514-0.305 0.514l-8.561 5.303c-0.624 0.409-1.134 0.106-1.134-0.669v-10.297c0-0.777 0.51-1.078 1.135-0.67l8.561 5.305c-0.001 0 0.304 0.215 0.304 0.514z"></path>
</symbol>
<symbol id="icon-cross" viewBox="0 0 20 20">
<path d="M14.348 14.849c-0.469 0.469-1.229 0.469-1.697 0l-2.651-3.030-2.651 3.029c-0.469 0.469-1.229 0.469-1.697 0-0.469-0.469-0.469-1.229 0-1.697l2.758-3.15-2.759-3.152c-0.469-0.469-0.469-1.228 0-1.697s1.228-0.469 1.697 0l2.652 3.031 2.651-3.031c0.469-0.469 1.228-0.469 1.697 0s0.469 1.229 0 1.697l-2.758 3.152 2.758 3.15c0.469 0.469 0.469 1.229 0 1.698z"></path>
</symbol>
<symbol id="icon-search" viewBox="0 0 18 18">
<path d="M7.012 3c2.193 0 3.977 1.794 3.977 4 0 0.831-0.255 1.63-0.737 2.312l-0.392 0.553-0.55 0.393c-0.678 0.485-1.473 0.742-2.298 0.742-2.193 0-3.977-1.794-3.977-4s1.784-4 3.977-4zM7.012 1c-3.295 0-5.966 2.686-5.966 6s2.671 6 5.966 6c1.288 0 2.477-0.414 3.451-1.112l4.791 4.819c0.195 0.196 0.45 0.293 0.705 0.293s0.51-0.098 0.704-0.293c0.389-0.391 0.389-1.025 0-1.416l-4.791-4.819c0.694-0.98 1.105-2.177 1.105-3.471 0-3.314-2.671-6-5.965-6v0z"></path>
</symbol>
<symbol id="icon-user" viewBox="0 0 18 18">
<path d="M13.714 7.654l-0.001 0c0.182-0.519 0.286-1.073 0.286-1.654 0-2.761-2.238-5-5-5s-5 2.239-5 5c0 0.581 0.104 1.135 0.286 1.654v-0c-1.948 0.991-3.286 3.010-3.286 5.345v3c0 0.553 0.448 1.001 1.001 1.001h13.997c0.553 0 1.001-0.448 1.001-1.001v-3c0-2.336-1.337-4.354-3.286-5.345zM9 3c1.654 0 3 1.346 3 3s-1.346 3-3 3c-1.654 0-3-1.346-3-3s1.346-3 3-3zM15 15h-12v-2.001c0-1.604 0.952-2.987 2.318-3.624 0.914 0.997 2.223 1.625 3.682 1.625s2.768-0.628 3.682-1.625c1.366 0.636 2.318 2.020 2.318 3.624v2.001z"></path>
</symbol>
<symbol id="icon-heart1" viewBox="0 0 18 18">
<path d="M12.5 4c1.378 0 2.5 1.346 2.5 3 0 3.154-3.818 5.713-6 6.8-2.184-1.089-6-3.647-6-6.8 0-1.654 1.122-3 2.5-3 0.643 0 1.347 0.44 1.883 1.177l0.809 0.886c0.399 0.549 1.218 0.549 1.617 0l0.809-0.886c0.536-0.737 1.24-1.177 1.883-1.177zM12.5 2c-1.415 0-2.675 0.866-3.5 2-0.825-1.134-2.085-2-3.5-2-2.485 0-4.5 2.239-4.5 5 0 5.719 8 9 8 9s8-3.281 8-9c0-2.761-2.015-5-4.5-5v0z"></path>
</symbol>
<symbol id="icon-cart" viewBox="0 0 18 18">
<path d="M14.312 9c0.695 0 1.299-0.478 1.459-1.154l1.181-4.982c0.237-0.947-0.479-1.864-1.455-1.864h-13.494c-0.552 0-0.999 0.448-0.999 1s0.448 1 0.999 1h1v8.5c0 0.829 0.671 1.5 1.499 1.5h10.496c0.552 0 0.999-0.448 0.999-1s-0.447-1-0.999-1h-9.996v-2h9.31zM5.002 3h9.863l-0.948 4h-8.915v-4zM5.502 14c-0.828 0-1.5 0.671-1.5 1.5s0.671 1.5 1.5 1.5 1.5-0.671 1.5-1.5-0.671-1.5-1.5-1.5zM13.498 14c-0.828 0-1.499 0.671-1.499 1.5s0.671 1.5 1.499 1.5 1.5-0.671 1.5-1.5-0.671-1.5-1.5-1.5z"></path>
</symbol>
</defs>
</svg>
